<svg width="300" height="300" viewBox="0 0 300 300" fill="none" xmlns="http://www.w3.org/2000/svg">
<circle cx="150" cy="150" r="150" fill="#D0D7DD"/>
<mask id="mask0_46_303" style="mask-type:alpha" maskUnits="userSpaceOnUse" x="0" y="0" width="300" height="300">
<circle cx="150" cy="150" r="150" fill="#FED18F"/>
</mask>
<g mask="url(#mask0_46_303)">
<path d="M203.824 121.765C203.824 130.718 202.87 139.325 201.109 147.354C200.783 148.845 200.428 150.316 200.047 151.765C192.419 180.751 174.071 201.177 152.648 201.177C136.116 201.177 121.416 189.014 112.06 170.14C109.047 164.062 106.588 157.288 104.801 150.001C102.649 141.228 101.471 131.71 101.471 121.765C101.471 117.563 99.3015 112.555 99.7067 108.53C100.767 97.9947 99.783 89.028 103.236 80.2947C106.788 71.3111 107.452 62.6258 112.942 56.4712C121.36 47.0332 141.469 42.3535 152.648 42.3535C164.835 42.3535 179.153 45.4347 187.942 56.4712C198.57 69.8166 202.56 93.1631 203.672 115.589C203.773 117.627 203.824 119.687 203.824 121.765Z" fill="white"/>
<path d="M101.471 121.765C101.471 121.765 97.8448 118.498 95.2949 119.118C93.6208 119.525 92.6052 120.261 91.7655 121.765C90.7579 123.571 91.1034 125.101 91.7655 127.059C92.4721 129.15 94.4842 129.419 95.2949 131.471C96.3078 134.035 94.8193 135.815 95.2949 138.53C95.8029 141.43 96.4294 143.063 97.942 145.589C99.0756 147.482 99.3801 149.297 101.471 150.001C102.704 150.415 104.801 150.001 104.801 150.001C102.649 141.228 101.471 131.71 101.471 121.765Z" fill="white"/>
<path d="M203.672 115.589C203.773 117.627 203.824 119.687 203.824 121.765C203.824 130.718 202.87 139.325 201.109 147.354L203.672 146.471C203.672 146.471 205.681 143.764 206.471 142.059C207.443 139.962 207.847 139.044 208.236 136.765C208.646 134.363 208.236 130.589 208.236 130.589C208.236 130.589 207.67 126.757 208.236 124.412C208.778 122.165 210.001 119.118 210.001 119.118C210.001 119.118 210.942 116.15 210.001 114.706C209.322 113.666 208.59 113.07 207.354 112.942C205.592 112.759 203.672 115.589 203.672 115.589Z" fill="white"/>
<path d="M200.047 151.765C192.419 180.751 174.071 201.177 152.648 201.177C136.116 201.177 121.416 189.014 112.06 170.14V201.177L110.295 204.706L105.883 207.354L101.471 219.706L110.295 234.706L131.471 251.471L175.589 257.648L208.236 249.706L220.589 234.706L203.672 204.706H198.53L200.047 151.765Z" fill="white"/>
<path d="M105.882 213.529C106.583 209.741 110.294 204.706 110.294 204.706C110.294 204.706 96.7009 210.862 88.2353 215.294C76.1932 221.598 69.6358 225.54 58.2353 232.941C45.401 241.273 38.8692 246.915 26.4706 255.882C16.4737 263.113 8.77895 264.932 0.882353 274.412C-3.77003 279.997 -5.62393 283.767 -8.82353 290.294C-11.7529 296.27 -15 306.176 -15 306.176L332.647 310.588C332.647 310.588 333.282 300.34 332.647 293.823C331.683 283.925 330.536 278.194 326.471 269.118C324.199 264.047 322.545 261.353 319.412 256.765C314.183 249.108 310.553 245.17 303.529 239.118C289.051 226.643 277.023 225.363 259.412 217.941C236.214 208.165 198.529 198.529 198.529 198.529V204.706C198.529 204.706 201.438 205.121 202.941 207.353C206.051 211.97 207.476 215.073 208.235 220.588C209.24 227.886 208.41 232.75 204.706 239.118C199.119 248.723 190.767 250.486 180 253.235C169.984 255.792 163.711 255.024 153.529 253.235C144.192 251.595 138.862 249.924 130.588 245.294C122.886 240.984 112.941 231.176 112.941 231.176C112.941 231.176 104.533 220.828 105.882 213.529Z" fill="white"/>
</g>
</svg>
