<svg width="300" height="300" viewBox="0 0 300 300" fill="none" xmlns="http://www.w3.org/2000/svg">
<circle cx="150" cy="150" r="150" fill="#FFC5C5"/>
<mask id="mask0_46_295" style="mask-type:alpha" maskUnits="userSpaceOnUse" x="0" y="0" width="300" height="300">
<circle cx="150" cy="150" r="150" fill="#FED18F"/>
</mask>
<g mask="url(#mask0_46_295)">
<path d="M203.824 121.765C203.824 130.718 202.869 139.325 201.109 147.354C200.782 148.845 200.428 150.316 200.046 151.765C192.419 180.751 174.07 201.177 152.647 201.177C136.116 201.177 121.415 189.014 112.059 170.14C109.046 164.062 106.587 157.288 104.8 150.001C102.649 141.228 101.471 131.71 101.471 121.765C101.471 117.563 99.301 112.555 99.7062 108.53C100.767 97.9947 99.7825 89.028 103.236 80.2947C106.788 71.3111 107.452 62.6258 112.941 56.4712C121.36 47.0332 141.468 42.3535 152.647 42.3535C164.835 42.3535 179.152 45.4347 187.941 56.4712C198.57 69.8166 202.56 93.1631 203.671 115.589C203.772 117.627 203.824 119.687 203.824 121.765Z" fill="#FEDFC3"/>
<path d="M101.471 121.765C101.471 121.765 97.8443 118.498 95.2944 119.118C93.6203 119.525 92.6047 120.261 91.765 121.765C90.7574 123.571 91.103 125.101 91.765 127.059C92.4716 129.15 94.4837 129.419 95.2944 131.471C96.3073 134.035 94.8188 135.815 95.2944 138.53C95.8025 141.43 96.4289 143.063 97.9415 145.589C99.0751 147.482 99.3796 149.297 101.471 150.001C102.703 150.415 104.8 150.001 104.8 150.001C102.649 141.228 101.471 131.71 101.471 121.765Z" fill="#FEDFC3"/>
<path d="M203.671 115.589C203.772 117.627 203.824 119.687 203.824 121.765C203.824 130.718 202.869 139.325 201.109 147.354L203.671 146.471C203.671 146.471 205.681 143.764 206.471 142.059C207.443 139.962 207.847 139.044 208.236 136.765C208.646 134.363 208.236 130.589 208.236 130.589C208.236 130.589 207.67 126.757 208.236 124.412C208.778 122.165 210 119.118 210 119.118C210 119.118 210.941 116.15 210 114.706C209.322 113.666 208.589 113.07 207.353 112.942C205.592 112.759 203.671 115.589 203.671 115.589Z" fill="#FEDFC3"/>
<path d="M200.046 151.765C192.419 180.751 174.07 201.177 152.647 201.177C136.116 201.177 121.415 189.014 112.059 170.14V201.177L110.294 204.706L105.883 207.354L101.471 219.706L110.294 234.706L131.471 251.471L175.589 257.648L208.236 249.706L220.589 234.706L203.671 204.706H198.53L200.046 151.765Z" fill="#FEDFC3"/>
<path d="M137.646 55.5884H149.999C149.999 55.5884 158.057 54.8517 163.235 54.706C167.024 54.5995 169.157 54.4761 172.941 54.706C176.055 54.8953 178.062 54.2526 180.882 55.5884C182.876 56.5329 184.369 57.1145 185.293 59.1178C186.16 60.995 184.581 62.4712 185.293 64.4119C185.888 66.0292 186.828 66.6261 187.941 67.9413C189.514 69.8014 191.683 70.0103 192.352 72.3531C192.731 73.6784 192.162 74.5174 192.352 75.8825C192.715 78.4816 193.624 79.8239 194.999 82.059C196.156 83.9382 197.677 84.4355 198.529 86.4708C199.726 89.3314 198.404 91.3132 198.529 94.4119C198.767 100.305 198.044 103.959 200.293 109.412C201.353 111.98 203.823 115.588 203.823 115.588L206.47 112.941C206.47 112.941 206.842 103.25 206.47 97.059C206.116 91.1714 205.562 87.8947 204.705 82.059C203.841 76.1737 203.467 72.8381 202.058 67.059C200.252 59.6484 199.833 55.0537 195.882 48.5296C192.219 42.4822 189.203 39.5126 183.529 35.2943C178.828 31.7993 175.825 30.1631 170.293 28.2355C163.391 25.8301 159.072 25.4185 151.764 25.5884C145.478 25.7346 141.911 26.4505 135.882 28.2355C128.197 30.5105 124.1 32.7338 117.352 37.059C110.964 41.1542 106.903 43.339 102.352 49.4119C98.4702 54.5929 96.9916 58.1645 95.2935 64.4119C93.1224 72.3992 93.5288 76.7649 94.4111 85.5884C95.1662 93.1393 94.3406 97.4716 95.2935 105C95.9978 110.565 97.9405 120 97.9405 120L102.352 122.647C102.352 122.647 101.634 115.861 101.47 112.059C101.322 108.616 101.47 103.235 101.47 103.235C101.47 103.235 100.28 95.7511 102.352 91.7649C102.925 90.6625 103.486 90.1882 104.117 89.1178C104.899 87.7902 105.298 87.0145 105.882 85.5884C107.858 80.7629 106.065 77.3219 107.646 72.3531C109.049 67.9478 109.831 65.1856 112.941 61.7649C115.963 58.4405 118.384 57.0091 122.646 55.5884C128.204 53.736 131.789 55.5884 137.646 55.5884Z" fill="#000E22"/>
<path fill-rule="evenodd" clip-rule="evenodd" d="M185.293 151.765C185.293 151.765 183.152 147.494 180.882 145.588C178.736 143.788 176.827 143.306 174.493 142.717C173.734 142.525 172.93 142.322 172.058 142.059C169.017 141.141 167.253 140.802 164.117 140.294C160.36 139.686 158.214 139.557 154.411 139.412C153.703 139.385 153.072 139.345 152.48 139.308C150.769 139.2 149.378 139.112 147.352 139.412C144.119 139.891 140.293 141.324 138.529 142.059C135.684 143.244 132.352 144.706 132.352 144.706C132.352 144.706 128.508 147.733 127.058 150C125.884 151.836 125.293 155.294 125.293 155.294C125.293 155.294 121.448 154.457 119.117 153.53C119.001 153.483 118.886 153.438 118.773 153.393C115.237 151.987 112.953 151.079 110.293 148.235C108.031 145.817 107.275 143.873 106.133 140.938C106.051 140.729 105.968 140.514 105.882 140.294C104.968 137.958 104.117 134.118 104.117 134.118C104.117 134.118 103.067 143.887 104.117 150C104.719 153.503 105.549 155.745 106.589 158.554C106.92 159.449 107.273 160.402 107.646 161.471C108.054 162.638 108.406 163.7 108.738 164.7C109.899 168.203 110.806 170.938 112.941 174.706C115.097 178.513 116.771 180.527 119.418 183.712C119.607 183.939 119.8 184.172 119.999 184.412C120.794 185.369 121.515 186.27 122.2 187.124C125.27 190.955 127.594 193.853 132.352 196.765C136.173 199.103 138.632 199.949 142.941 201.177C149.272 202.981 153.141 203.441 159.705 202.941C164.625 202.567 167.503 202.189 172.058 200.294C177.976 197.833 180.814 195.173 185.293 190.588C189.969 185.803 191.994 182.448 194.999 176.471C197.79 170.921 198.896 167.524 200.293 161.471C201.369 156.811 201.6 153.938 201.957 149.484C201.99 149.082 202.023 148.666 202.058 148.235C202.73 139.993 202.058 127.059 202.058 127.059L198.529 137.647C198.529 137.647 196.98 143.332 194.999 146.471C194.797 146.791 194.609 147.097 194.429 147.39C193.328 149.179 192.519 150.494 190.588 151.765C189.037 152.785 186.176 153.53 186.176 153.53L185.293 151.765ZM174.552 151.911C173.657 150.443 172.912 149.223 171.176 148.235C167.881 146.361 161.47 148.235 161.47 148.235H154.411C154.411 148.235 147.875 147.411 143.823 148.235C143.685 148.263 143.549 148.291 143.415 148.318C140.008 149.009 137.734 149.469 134.999 151.765C132.729 153.671 131.33 155.072 130.588 157.941C130.07 159.943 130.145 161.216 130.588 163.235C131.283 166.411 132.388 168.359 134.999 170.294C136.237 171.212 137.056 171.606 138.529 172.059C138.955 172.19 139.404 172.347 139.859 172.506C142.218 173.329 144.776 174.222 145.588 172.059C145.588 172.059 145.371 168.658 145.588 167.647C145.903 166.176 146.53 165.973 147.511 165.657C147.968 165.509 148.502 165.337 149.117 165C150.557 164.211 151.808 164.675 153.167 165.18C154.09 165.522 155.061 165.883 156.176 165.883C157.039 165.883 157.781 165.568 158.488 165.268C159.475 164.85 160.392 164.461 161.47 165C161.813 165.172 162.256 165.338 162.728 165.515C164.056 166.014 165.62 166.601 165.882 167.647C166.564 170.376 166.576 170.375 167.473 170.306C167.736 170.286 168.075 170.259 168.529 170.294C170.316 170.432 171.384 169.572 172.65 168.553C173.017 168.258 173.4 167.949 173.823 167.647C174.163 167.404 174.491 167.182 174.805 166.969C176.324 165.94 177.526 165.126 178.235 163.235C178.961 161.3 178.794 159.932 178.235 157.941C177.832 156.51 177.203 155.685 176.438 154.684C176.17 154.332 175.885 153.959 175.588 153.53C175.192 152.96 174.863 152.42 174.552 151.911Z" fill="#000E22"/>
<path d="M105.882 213.529C106.583 209.741 110.294 204.706 110.294 204.706C110.294 204.706 96.7009 210.862 88.2353 215.294C76.1932 221.598 69.6358 225.54 58.2353 232.941C45.401 241.273 38.8692 246.915 26.4706 255.882C16.4737 263.113 8.77895 264.932 0.882353 274.412C-3.77003 279.997 -5.62393 283.767 -8.82353 290.294C-11.7529 296.27 -15 306.176 -15 306.176L332.647 310.588C332.647 310.588 333.282 300.34 332.647 293.823C331.683 283.925 330.536 278.194 326.471 269.118C324.199 264.047 322.545 261.353 319.412 256.765C314.183 249.108 310.553 245.17 303.529 239.118C289.051 226.643 277.023 225.363 259.412 217.941C236.214 208.165 198.529 198.529 198.529 198.529V204.706C198.529 204.706 201.438 205.121 202.941 207.353C206.051 211.97 207.476 215.073 208.235 220.588C209.24 227.886 208.41 232.75 204.706 239.118C199.119 248.723 190.767 250.486 180 253.235C169.984 255.792 163.711 255.024 153.529 253.235C144.192 251.595 138.862 249.924 130.588 245.294C122.886 240.984 112.941 231.176 112.941 231.176C112.941 231.176 104.533 220.828 105.882 213.529Z" fill="#45537A"/>
</g>
</svg>
