<svg width="300" height="300" viewBox="0 0 300 300" fill="none" xmlns="http://www.w3.org/2000/svg">
<mask id="mask0_46_268" style="mask-type:alpha" maskUnits="userSpaceOnUse" x="0" y="0" width="300" height="300">
<circle cx="150" cy="150" r="150" transform="matrix(-1 0 0 1 300 0)" fill="#78AEB1"/>
</mask>
<g mask="url(#mask0_46_268)">
<circle cx="150" cy="150" r="150" transform="matrix(-1 0 0 1 300 0)" fill="#58C5CB"/>
<path fill-rule="evenodd" clip-rule="evenodd" d="M204.705 109.411C204.705 112.404 204.544 115.349 204.233 118.235C204.233 118.235 206.175 114.904 208.234 113.823C208.437 113.717 208.624 113.607 208.803 113.502C209.476 113.108 210.036 112.78 210.881 112.941C212.279 113.206 212.095 114.589 211.894 116.102V116.102V116.102C211.799 116.819 211.7 117.564 211.764 118.235C211.764 118.235 211.742 125.829 210.881 130.588C210.182 134.454 209.68 136.641 208.234 140.294C207.1 143.159 204.705 147.352 204.705 147.352L204.135 147.343C202.41 161.878 196.866 174.849 188.823 184.599V206.47L194.117 215.294L182.647 255H118.235L109.779 206.47V174.705C105.115 166.234 102.006 156.312 100.969 145.589L100.888 145.588C100.888 145.588 98.9826 146.076 97.94 145.588C96.9125 145.107 96.7976 144.182 96.6703 143.159C96.5894 142.509 96.5036 141.818 96.1753 141.176C95.5248 139.904 94.7649 139.048 94.0131 138.202C93.2053 137.292 92.4069 136.394 91.7635 135C90.3644 131.968 90.261 129.701 90.1284 126.792C90.0945 126.048 90.0587 125.262 89.9988 124.411C89.9672 123.962 89.9348 123.541 89.9039 123.139C89.7218 120.773 89.5923 119.09 89.9988 116.47C90.1106 115.75 90.1069 114.998 90.1033 114.273C90.0946 112.502 90.0867 110.89 91.7635 110.294C92.635 109.983 93.2501 110.091 94.1004 110.24L94.1019 110.24L94.1055 110.241C94.2038 110.258 94.3052 110.276 94.4106 110.294C97.8574 110.873 100.888 116.47 100.888 116.47C100.689 114.151 100.587 111.796 100.587 109.411C100.587 73.3504 123.895 44.1172 152.646 44.1172C181.397 44.1172 204.705 73.3504 204.705 109.411Z" fill="#FEDFC3"/>
<path d="M177.353 58.235C168.699 54.8195 162.57 60.4339 153.529 58.235C148.12 56.9193 145.855 53.201 140.294 52.9409C132.288 52.5664 127.947 56.6642 121.765 61.7644C117.238 65.4985 114.075 67.7244 112.059 73.235C110.046 78.7361 114.072 82.7339 112.059 88.235C110.042 93.7456 104.173 94.127 102.353 99.7056C100.857 104.292 102.353 112.059 102.353 112.059V127.941C102.353 127.941 96.8035 116.912 94.4118 109.411C91.8456 101.363 90.7092 96.6527 90.0001 88.235C89.5083 82.3978 88.4862 78.8939 90.0001 73.235C91.8032 66.4948 94.1419 62.4448 99.7059 58.235C104.92 54.2902 109.075 53.5038 115.588 52.9409H121.765L119.118 50.2938C119.118 50.2938 118.018 44.2153 119.118 40.5879C121.028 34.2879 131.471 29.1173 131.471 29.1173C131.471 29.1173 144.671 23.7397 153.529 23.8232C162.054 23.9036 174.706 29.1173 174.706 29.1173C174.706 29.1173 189.65 38.1892 197.647 45.8821C204.706 52.6726 209.822 56.2278 213.529 65.2938C216.943 73.6413 216.602 79.2265 216.177 88.235C215.726 97.755 211.765 113.823 211.765 113.823C211.765 113.823 210 111.176 207.353 114.706C204.706 118.235 202.941 130.588 202.941 130.588V118.235C202.941 118.235 204.366 108.917 202.941 103.235C201.288 96.6429 195.771 94.8271 194.118 88.235C192.693 82.553 196.023 78.7743 194.118 73.235C191.26 64.9276 185.525 61.4601 177.353 58.235Z" fill="#691D0D"/>
<path d="M135 235.588C138.807 237.974 141.438 238.681 144.706 241.765C148.877 245.701 152.647 254.118 152.647 254.118C152.647 254.118 156.726 248.549 159.706 245.294C166.829 237.515 174.681 237.062 180.882 228.529C185.141 222.669 187.059 211.765 187.059 211.765L188.823 193.235H189.706L194.118 203.824L274.412 245.294C274.412 245.294 282.719 247.245 286.765 250.588C289.213 252.612 292.059 256.765 292.059 256.765L313.235 301.765H-11.4707C-11.4707 301.765 -8.38098 291.502 -6.17659 285C-2.1494 273.121 -2.78444 264.595 5.294 255C10.8423 248.41 15.7185 246.46 22.9411 241.765C37.0264 232.609 61.7646 223.235 61.7646 223.235L101.47 202.941L109.412 193.235C109.412 193.235 109.337 199.428 109.412 202.941C109.521 208.063 109.849 209.79 112.059 214.412C114.327 219.157 115.538 222.029 119.118 225.882C124.064 231.208 128.84 231.728 135 235.588Z" fill="#DE2C2F"/>
</g>
</svg>
