<svg width="300" height="300" viewBox="0 0 300 300" fill="none" xmlns="http://www.w3.org/2000/svg">
<circle cx="150" cy="150" r="150" fill="#FFD492"/>
<mask id="mask0_46_286" style="mask-type:alpha" maskUnits="userSpaceOnUse" x="0" y="0" width="300" height="300">
<circle cx="150" cy="150" r="150" fill="#6E8F7B"/>
</mask>
<g mask="url(#mask0_46_286)">
<ellipse cx="149.117" cy="138.53" rx="75" ry="67.9412" fill="#D65F00"/>
<path d="M190.588 108.53C190.588 128.963 183.026 146.9 171.641 157.059C165.377 162.648 157.956 165.883 150 165.883C135.366 165.883 122.542 154.94 115.4 138.53C113.842 134.948 112.554 131.105 111.577 127.059C110.173 121.247 109.412 115.014 109.412 108.53C109.412 105.835 109.543 103.184 109.798 100.589C112.534 72.6717 129.491 51.1768 150 51.1768C172.416 51.1768 190.588 76.8545 190.588 108.53Z" fill="#FEDFC3"/>
<path d="M109.412 108.53C109.412 105.835 109.543 103.184 109.798 100.589C109.798 100.589 108.197 96.4149 105.882 95.2944C103.711 94.2433 101.984 94.5035 99.7058 95.2944C95.1834 96.8642 93.0188 101.263 91.7647 105.883C90.5008 110.538 91.9427 113.68 93.5293 118.236C94.5984 121.306 95.8761 122.784 97.9411 125.294C99.4888 127.176 100.189 128.587 102.353 129.706C104.82 130.982 107.145 132.195 109.412 130.589C110.731 129.653 111.577 127.059 111.577 127.059C110.173 121.247 109.412 115.014 109.412 108.53Z" fill="#FEDFC3"/>
<path d="M150 165.883C135.366 165.883 122.542 154.94 115.4 138.53C115.4 138.53 119.421 152.895 120 162.353C120.274 166.824 120 173.824 120 173.824L115.4 194.118L187.941 195.883C187.941 195.883 179.433 192.284 174.706 188.824C172.142 186.947 168.529 183.53 168.529 183.53C168.529 183.53 167.647 177.091 167.647 172.941C167.647 168.792 168.529 162.353 168.529 162.353L171.641 157.059C165.377 162.648 157.956 165.883 150 165.883Z" fill="#FEDFC3"/>
<path d="M165 62.6475C159.816 59.7718 152.647 53.824 152.647 53.824C152.647 53.824 149.934 57.4734 147.353 58.2357C143.485 59.3783 137.647 54.7063 137.647 54.7063C137.647 54.7063 135.764 59.6795 134.118 62.6475C131.143 68.0129 129.067 71.0042 124.412 75.0005C121.003 77.927 116.886 77.2487 114.706 81.1769C112.859 84.5047 114.628 87.1627 113.824 90.8828C112.81 95.5739 109.412 102.353 109.412 102.353C109.412 102.353 109.485 94.2189 105.883 91.7652C102.169 89.2359 94.4119 92.6475 94.4119 92.6475C94.4119 92.6475 78.4049 110.417 82.9413 121.765C87.4615 133.073 108.53 134.118 111.177 135C113.824 135.883 119.118 169.412 119.118 169.412C119.118 169.412 119.416 186.132 112.941 193.236C109.594 196.909 107.187 199.141 102.353 200.295C95.768 201.866 89.4172 201.466 85.5884 195.883C82.2754 191.052 89.9443 184.799 85.5884 180.883C81.992 177.649 77.3734 182.504 73.2355 180C66.1048 175.686 77.6733 163.213 70.5884 158.824C69.011 157.847 67.7519 158.04 66.1766 157.059C59.8621 153.128 65.5459 144.936 61.7649 138.53C59.161 134.118 54.3623 133.745 52.9413 128.824C50.6294 120.817 63.2262 118.623 63.5296 110.295C63.6698 106.445 61.0103 104.367 61.7649 100.589C62.5887 96.464 67.0251 95.8703 67.9413 91.7652C68.6957 88.3853 66.4024 86.3418 67.059 82.9416C68.654 74.682 82.6587 78.748 84.7061 70.5887C85.7159 66.5642 82.365 63.8849 83.8237 60.0004C85.9428 54.3575 93.3083 56.7779 97.059 52.0593C99.6498 48.7999 98.2638 45.0088 101.471 42.3534C104.497 39.8477 107.781 41.6818 111.177 39.7063C114.546 37.7461 114.77 34.4328 118.235 32.6475C123.443 29.9649 129.279 36.9672 133.235 32.6475C135.008 30.7124 133.812 28.083 135.883 26.471C138.075 24.7645 140.548 26.9988 142.941 25.5887C145.998 23.788 144.3 19.4541 147.353 17.6475C152.144 14.8126 160.588 22.9416 160.588 22.9416C160.588 22.9416 164.656 17.3706 168.53 15.8828C173.716 13.8905 177.38 15.8777 182.647 17.6475C188.81 19.7185 190.938 23.588 196.765 26.471C203.019 29.565 209.245 27.1411 213.53 32.6475C217.391 37.61 213.804 42.7068 216.177 48.5299C219.859 57.5666 230.423 57.6315 232.941 67.0593C234.364 72.3858 231.547 75.8429 232.941 81.1769C234.586 87.467 240.444 88.9287 241.765 95.2946C243.112 101.784 237.916 105.541 239.118 112.059C240.012 116.911 244.156 118.603 244.412 123.53C244.701 129.089 238.841 131.205 239.118 136.765C239.441 143.259 248.824 144.441 247.941 150.883C247.211 156.216 242.849 157.592 239.118 161.471C234.376 166.4 229.081 166.896 225.883 172.942C223.26 177.9 225.811 182.076 223.235 187.059C219.152 194.959 213.537 199.248 204.706 200.295C197.983 201.091 187.941 195.883 187.941 195.883L174.706 168.53L187.941 146.471C187.941 146.471 189.959 132.512 189.706 123.53C189.521 116.949 188.256 113.341 187.941 106.765C187.678 101.258 189.595 97.907 187.941 92.6475C186.307 87.4501 182.55 85.9919 180 81.1769C177.245 75.9732 179.021 71.0659 174.706 67.0593C171.655 64.2262 168.641 64.6672 165 62.6475Z" fill="#D65F00"/>
<path d="M145.588 195C134.052 194.291 116.47 189.706 116.47 189.706C116.47 189.706 106.963 197.592 99.7058 200.294C91.2541 203.441 85.2632 199.923 76.7646 202.941C68.2971 205.948 63.1275 208.41 57.3528 215.294C50.1396 223.894 48.5293 242.647 48.5293 242.647L57.3528 315.883L265.588 313.235V247.941C265.588 247.941 267.59 219.086 255.882 208.235C245.026 198.175 221.47 200.294 218.823 200.294C216.176 200.294 204.009 200.953 195 198.53C188.882 196.884 180 192.353 180 192.353C180 192.353 159.041 195.828 145.588 195Z" fill="#7D002A"/>
</g>
</svg>
