<svg width="300" height="300" viewBox="0 0 300 300" fill="none" xmlns="http://www.w3.org/2000/svg">
<circle cx="150" cy="150" r="150" fill="#BBB5FF"/>
<mask id="mask0_46_277" style="mask-type:alpha" maskUnits="userSpaceOnUse" x="0" y="0" width="300" height="300">
<circle cx="150" cy="150" r="150" fill="#D9D9D9"/>
</mask>
<g mask="url(#mask0_46_277)">
<path d="M127.107 158.582L97.989 98.5822L91.7646 96.1763L84.7058 99.7057C84.7058 99.7057 82.8597 120.585 83.8234 139.17C84.2531 147.458 83.8713 141.818 84.7537 158.582C84.9562 162.429 85.0833 169.043 83.8713 172.7C81.975 178.422 79.0114 180.755 75.9302 185.935C65.3558 203.715 49.4596 231.818 49.4596 231.818C49.4596 231.818 40.4399 247.378 37.1066 258.288C35.2501 264.365 33.9569 267.828 33.5772 274.17C33.1838 280.742 35.3419 290.935 35.3419 290.935L37.5077 303.288H69.7537L68.8713 246.818L79.4596 222.112L141.224 200.053V169.17L127.107 158.582Z" fill="#EAA032"/>
<path d="M199.46 95.0528L216.176 93.0723C216.176 93.0723 215.174 106.218 214.46 114.465C213.77 122.427 212.251 126.778 211.813 134.759C211.491 140.608 211.205 143.932 211.813 149.759C212.359 155.001 214.46 162.994 214.46 162.994C214.46 162.994 216.623 171.791 218.871 177.112C223.223 187.412 228.661 191.559 234.754 200.935C239.649 208.47 243.237 212.721 247.989 220.347C250.77 224.811 250.636 224.759 255.048 230.935C257.581 234.482 259.46 239.759 259.46 239.759C259.46 239.759 260.342 244.254 260.342 247.7V247.7C260.342 251.146 260.342 253.876 257.695 264.465C255.048 275.053 254.641 274.556 254.165 281.229C253.724 287.426 253.907 291.005 255.048 297.112C255.769 300.974 257.695 306.818 257.695 306.818H236.518L238.283 253.876L221.518 229.17L185.342 207.994L167.695 192.994V167.406L188.871 132.112L199.46 95.0528Z" fill="#EAA032"/>
<path d="M200.293 102.112C199.637 110.311 198.494 118.388 196.636 125.935C193.496 138.694 188.315 149.938 179.999 157.7C177.16 160.35 174.594 162.84 172.058 165.076C166.15 170.286 160.407 174.112 151.764 175.347C147.657 174.252 143.872 172.817 140.293 171.068C132.339 167.182 125.407 161.747 118.235 155.053C111.233 148.518 106.701 140.503 103.593 131.005C100.826 122.549 99.1873 112.917 97.9405 102.112C97.9405 100.928 97.9606 99.7517 98.0003 98.5823C99.3022 60.2622 121.69 29.7588 149.117 29.7588C176.122 29.7588 198.241 59.3299 200.159 96.8176C200.248 98.5658 200.293 100.331 200.293 102.112Z" fill="#FEDFC3"/>
<path d="M97.9405 102.112C97.9405 100.928 97.9606 99.7517 98.0003 98.5823C98.0003 98.5823 95.4022 97.5912 94.4111 98.5823C90.8816 102.112 91.1104 104.269 90.8817 105.641C90.5152 107.84 90.2481 113.56 90.8817 117.994C91.4373 121.883 92.2684 123.919 93.5287 127.7C94.4111 130.347 97.0581 132.112 97.0581 132.112C97.0581 132.112 99.7052 133.876 102.352 132.994C103.221 132.705 103.593 131.005 103.593 131.005C100.826 122.549 99.1873 112.917 97.9405 102.112Z" fill="#FEDFC3"/>
<path d="M200.159 96.8176C200.248 98.5658 200.293 100.331 200.293 102.112C199.637 110.311 198.494 118.388 196.636 125.935C196.636 125.935 198.585 127.499 200.293 127.7C202.334 127.94 205.588 125.935 205.588 125.935C205.588 125.935 210.373 121.903 211.764 117.994C213.27 113.761 212.104 108.777 210.882 104.759L210.843 104.63C209.332 99.662 208.197 95.9277 203.823 95.0529C202.265 94.7414 200.159 96.8176 200.159 96.8176Z" fill="#FEDFC3"/>
<path d="M151.764 175.347C147.657 174.252 143.872 172.817 140.293 171.068C140.293 171.068 142.744 181.177 140.293 186.818C139.493 188.66 138.791 189.578 137.646 191.229C129.999 202.259 121.764 204.465 107.646 208.876C94.8194 212.885 85.2146 211.56 75.8816 221.229C72.6267 224.602 70.8858 226.727 68.8228 230.935C65.8778 236.943 65.5268 241.014 65.2934 247.7C65.0876 253.595 67.0581 262.7 67.0581 262.7L68.8228 281.229L70.5875 303.288L238.235 306.818C238.235 306.818 241.858 292.423 242.646 282.994C243.307 275.096 243.65 270.632 243.529 262.7C243.439 256.833 242.646 245.294 242.646 245.294C242.646 245.294 241.84 241.436 240.882 239.118C239.609 236.039 238.39 234.228 236.47 231.818C233.849 228.528 227.646 225.641 227.646 225.641L202.058 212.406C202.058 212.406 185.052 204.565 176.47 196.524C175.047 195.191 174.735 194.717 173.823 192.994C172.842 191.142 172.337 189.777 172.058 187.7C170.882 178.944 172.058 165.076 172.058 165.076C166.15 170.286 160.407 174.112 151.764 175.347Z" fill="#FEDFC3"/>
<path d="M180 140.294C180 140.294 178.437 134.618 176.471 131.47C172.563 125.216 167.203 124.639 161.471 120C156.909 116.308 153.766 114.794 150 110.294C147.608 107.435 146.654 105.53 144.706 102.353C141.645 97.3582 139.592 94.6427 137.647 89.1172C136.009 84.4636 135 76.7643 135 76.7643V47.6466C135 47.6466 135.882 48.529 135 50.2937C134.118 52.0584 134.118 52.9408 132.353 56.4702C130.257 60.6622 128.849 63.2086 126.176 67.0584C122.197 72.7896 115.588 81.176 115.588 81.176L108.529 89.1172L98.3772 99.0642C98.3772 99.0642 96.6125 98.1818 95.7301 98.1818C94.8478 98.1818 84.7058 99.7055 84.7058 99.7055C84.7058 99.7055 84.584 81.7906 85.5882 73.2349C86.3681 66.5899 89.1176 56.4702 89.1176 56.4702C89.1176 56.4702 92.8104 43.656 97.9412 37.2995C101.77 32.5558 104.822 30.0395 110.294 27.3525C115.634 24.7307 121.765 23.8231 125.294 23.8231C128.824 23.8231 139.412 24.7055 139.412 24.7055C139.412 24.7055 143.166 20.1084 146.471 18.529C151.756 16.0031 155.674 15.7006 161.471 16.5485C167.267 17.3963 173.178 19.3138 180 22.7249C187.059 26.2543 191.362 31.4398 195 35.0779C197.647 37.7249 205.588 52.7249 205.588 52.7249C205.588 52.7249 210.379 65.0321 212.647 73.2349C214.791 80.9883 216.176 93.3132 216.176 93.3132L200.73 95.5348L199.412 112.941C199.412 112.941 197.546 107.435 195.882 104.117C193.869 100.101 192.542 97.8957 189.706 94.4113C186.165 90.061 179.118 84.7055 179.118 84.7055C179.118 84.7055 171.483 78.1158 165.882 74.9996C162.244 72.9753 156.176 70.5878 156.176 70.5878C156.176 70.5878 152.851 68.5751 150.882 67.0584C146.053 63.3373 140.294 55.5878 140.294 55.5878C140.294 55.5878 139.862 70.1945 141.176 79.4114C141.472 81.4864 141.176 79.4114 142.059 84.7055C142.708 88.5978 142.994 89.5394 144.706 92.6466C146.789 96.4282 149.182 98.8926 151.765 102.353C154.388 105.867 159.706 110.294 159.706 110.294C159.706 110.294 164.546 115.134 167.647 118.235C170.059 120.647 173.824 124.411 173.824 124.411C173.824 124.411 176.971 127.33 178.235 129.705C180.204 133.406 180 140.294 180 140.294Z" fill="#EAA032"/>
<path d="M127.941 227.646C122.081 220.453 119.117 205.587 119.117 205.587L89.1172 212.646C89.1172 212.646 94.4202 217.658 97.0584 221.47C100.921 227.051 103.089 230.839 105 237.352C106.961 244.039 107.343 248.055 106.764 254.999C106.257 261.084 104.233 264.19 102.352 269.999C99.8682 277.674 95.2937 289.411 95.2937 289.411L102.352 300.882L174.705 309.705L217.058 284.999C217.058 284.999 211.763 276.076 209.117 269.999C206.637 264.304 204.926 261.112 203.823 254.999C202.599 248.217 202.788 244.166 203.823 237.352C205.084 229.056 210.882 217.058 210.882 217.058L188.823 204.705C188.823 204.705 185.294 219.705 180.882 227.646C177.212 234.252 173.816 238.163 166.764 240.882C160.013 243.485 154.365 244.432 147.352 242.646C138.276 240.335 134.004 235.09 128.122 227.868L127.941 227.646Z" fill="#5D5496"/>
</g>
</svg>
