<svg width="60" height="60" viewBox="0 0 60 60" fill="none" xmlns="http://www.w3.org/2000/svg">
<path fill-rule="evenodd" clip-rule="evenodd" d="M56 30C56 44.3594 44.3594 56 30 56C15.6406 56 4 44.3594 4 30C4 15.6406 15.6406 4 30 4C44.3594 4 56 15.6406 56 30ZM60 30C60 46.5685 46.5685 60 30 60C13.4315 60 0 46.5685 0 30C0 13.4315 13.4315 0 30 0C46.5685 0 60 13.4315 60 30ZM29.5833 7.5C31.1079 7.5 32.3437 8.73588 32.3437 10.2604V26.8229H48.9062C50.4308 26.8229 51.6667 28.0588 51.6667 29.5833C51.6667 31.1079 50.4308 32.3437 48.9062 32.3437H32.3437V48.9062C32.3437 50.4308 31.1079 51.6667 29.5833 51.6667C28.0588 51.6667 26.8229 50.4308 26.8229 48.9062V32.3437H10.2604C8.73588 32.3437 7.5 31.1079 7.5 29.5833C7.5 28.0588 8.73588 26.8229 10.2604 26.8229H26.8229V10.2604C26.8229 8.73588 28.0588 7.5 29.5833 7.5Z" fill="#20AFFF"/>
</svg>
