<svg width="52" height="46" viewBox="0 0 52 46" fill="none" xmlns="http://www.w3.org/2000/svg">
<path d="M3 20C1.34315 20 3.306e-07 21.3431 2.38419e-07 23C1.46237e-07 24.6569 1.34315 26 3 26L3 20ZM51.1213 25.1213C52.2929 23.9498 52.2929 22.0503 51.1213 20.8787L32.0294 1.7868C30.8579 0.615227 28.9584 0.615227 27.7868 1.7868C26.6152 2.95837 26.6152 4.85787 27.7868 6.02944L44.7574 23L27.7868 39.9706C26.6152 41.1421 26.6152 43.0416 27.7868 44.2132C28.9584 45.3848 30.8579 45.3848 32.0294 44.2132L51.1213 25.1213ZM3 26L49 26L49 20L3 20L3 26Z" fill="#20AFFF" fill-opacity="0.3"/>
</svg>
