<svg width="27" height="27" viewBox="0 0 27 27" fill="none" xmlns="http://www.w3.org/2000/svg">
<path fill-rule="evenodd" clip-rule="evenodd" d="M5 10.6667V6.66667C5 2.98477 8.73096 0 13.3333 0C17.9357 0 21.6667 2.98477 21.6667 6.66667V10.6667H23.3333C25.1743 10.6667 26.6667 11.8606 26.6667 13.3333L24.5837 24C24.5837 25.4728 23.5076 26.3334 21.6667 26.3334H4.58374C2.74279 26.3334 2.08374 25.4728 2.08374 24L0 13.3333C0 11.8606 1.49238 10.6667 3.33333 10.6667H5ZM8.33333 6.66667C8.33333 4.45753 10.5719 2.66667 13.3333 2.66667C16.0948 2.66667 18.3333 4.45753 18.3333 6.66667V10.6667H8.33333V6.66667Z" fill="black"/>
</svg>
