<svg width="27" height="27" viewBox="0 0 27 27" fill="none" xmlns="http://www.w3.org/2000/svg">
<path fill-rule="evenodd" clip-rule="evenodd" d="M5 6.66667V10.6667H3.33333C1.49238 10.6667 0 11.8606 0 13.3333L2.08374 24C2.08374 25.4728 2.74279 26.3334 4.58374 26.3334H21.6667C23.5076 26.3334 24.5837 25.4728 24.5837 24L26.6667 13.3333C26.6667 11.8606 25.1743 10.6667 23.3333 10.6667H21.6667V6.66667C21.6667 2.98477 17.9357 0 13.3333 0C8.73096 0 5 2.98477 5 6.66667ZM13.3333 2.66667C10.5719 2.66667 8.33333 4.45753 8.33333 6.66667V10.6667H18.3333V6.66667C18.3333 4.45753 16.0948 2.66667 13.3333 2.66667ZM3.33333 13.3333L5 24H21.6667L23.3333 13.3333H3.33333Z" fill="black"/>
</svg>
