<svg width="40" height="32" viewBox="0 0 40 32" fill="none" xmlns="http://www.w3.org/2000/svg">
<path fill-rule="evenodd" clip-rule="evenodd" d="M11.6667 9.33366V13.3337H10.0001C8.15913 13.3337 6.66675 14.5276 6.66675 16.0003L8.75049 26.667C8.75049 28.1398 9.40954 29.0004 11.2505 29.0004H28.3334C30.1744 29.0004 31.2505 28.1398 31.2505 26.667L33.3334 16.0003C33.3334 14.5276 31.841 13.3337 30.0001 13.3337H28.3334V9.33366C28.3334 5.65176 24.6025 2.66699 20.0001 2.66699C15.3977 2.66699 11.6667 5.65176 11.6667 9.33366ZM20.0001 5.33366C17.2387 5.33366 15.0001 7.12452 15.0001 9.33366V13.3337H25.0001V9.33366C25.0001 7.12452 22.7615 5.33366 20.0001 5.33366ZM10.0001 16.0003L11.6667 26.667H28.3334L30.0001 16.0003H10.0001Z" fill="black"/>
</svg>
