<svg width="24" height="24" viewBox="0 0 24 24" fill="none" xmlns="http://www.w3.org/2000/svg">
<path d="M20.5569 23.4092C21.3446 24.1969 22.6216 24.1969 23.4093 23.4092C24.1969 22.6216 24.1969 21.3446 23.4093 20.5569L14.8523 12L23.4093 3.44309C24.1969 2.65544 24.1969 1.37842 23.4093 0.590775C22.6216 -0.196869 21.3446 -0.196869 20.5569 0.590775L12 9.14769L3.44305 0.590733C2.65541 -0.196911 1.37838 -0.196911 0.590736 0.590733C-0.196909 1.37838 -0.19691 2.6554 0.590736 3.44304L9.1477 12L0.590734 20.557C-0.196912 21.3446 -0.196911 22.6216 0.590734 23.4093C1.37838 24.1969 2.6554 24.1969 3.44305 23.4093L12 14.8523L20.5569 23.4092Z" fill="#20AFFF"/>
</svg>
