<svg width="32" height="32" viewBox="0 0 32 32" fill="none" xmlns="http://www.w3.org/2000/svg">
<path fill-rule="evenodd" clip-rule="evenodd" d="M16.0001 9.73778L14.1846 8.05032C13.2377 7.17022 11.9879 6.66667 10.6112 6.66667C7.70268 6.66667 5.33341 9.03797 5.33341 11.9334C5.33341 12.9452 5.75955 14.2317 6.6933 15.7522C7.60957 17.2443 8.88703 18.755 10.2735 20.1606C12.5085 22.4263 14.8561 24.2487 15.9891 25.0878C17.1219 24.1976 19.4808 22.2636 21.7269 19.9321C23.119 18.4871 24.4034 16.9551 25.3244 15.4804C26.2755 13.9576 26.6667 12.7677 26.6667 11.9445C26.6667 9.03554 24.2951 6.66667 21.389 6.66667C20.0123 6.66667 18.7624 7.17022 17.8156 8.05032L16.0001 9.73778ZM15.0334 27.6893C13.7667 26.7906 2.66675 18.7573 2.66675 11.9334C2.66675 7.56172 6.23342 4 10.6112 4C12.6556 4 14.5556 4.75451 16.0001 6.09709C17.4445 4.75451 19.3445 4 21.389 4C25.7667 4 29.3334 7.56172 29.3334 11.9445C29.3334 18.1692 18.2779 26.7129 17.0112 27.6671C16.7112 27.889 16.3556 28 16.0001 28C15.6556 28 15.3223 27.889 15.0334 27.6893Z" fill="black"/>
</svg>
