<svg width="27" height="24" viewBox="0 0 27 24" fill="none" xmlns="http://www.w3.org/2000/svg">
<path fill-rule="evenodd" clip-rule="evenodd" d="M13.3333 5.73778L11.5178 4.05032C10.571 3.17022 9.32114 2.66667 7.94444 2.66667C5.03594 2.66667 2.66667 5.03797 2.66667 7.93343C2.66667 8.94515 3.0928 10.2317 4.02655 11.7522C4.94282 13.2443 6.22028 14.755 7.60678 16.1606C9.84174 18.4263 12.1894 20.2487 13.3223 21.0878C14.4552 20.1976 16.814 18.2636 19.0601 15.9321C20.4522 14.4871 21.7366 12.9551 22.6577 11.4804C23.6087 9.95762 24 8.76771 24 7.94452C24 5.03554 21.6283 2.66667 18.7222 2.66667C17.3455 2.66667 16.0957 3.17022 15.1488 4.05032L13.3333 5.73778ZM12.3667 23.6893C11.1 22.7906 0 14.7573 0 7.93343C0 3.56172 3.56667 0 7.94444 0C9.98889 0 11.8889 0.754507 13.3333 2.09709C14.7778 0.754507 16.6778 0 18.7222 0C23.1 0 26.6667 3.56172 26.6667 7.94452C26.6667 14.1692 15.6111 22.7129 14.3444 23.6671C14.0444 23.889 13.6889 24 13.3333 24C12.9889 24 12.6556 23.889 12.3667 23.6893Z" fill="black"/>
</svg>
