<svg width="22" height="26" viewBox="0 0 22 26" fill="none" xmlns="http://www.w3.org/2000/svg">
<path d="M17.9299 1.53532C17.8185 0.807423 18.3182 0.126997 19.0461 0.0155462C19.774 -0.0959049 20.4544 0.403823 20.5659 1.13172L21.3824 6.46485C21.4871 7.14855 21.0516 7.79878 20.3795 7.96222L14.8965 9.2956C14.1809 9.4696 13.4598 9.03061 13.2858 8.31508C13.1118 7.59956 13.5508 6.87845 14.2663 6.70445L16.8545 6.07505C13.2625 3.46092 8.31384 3.73493 5.21034 6.83844C1.76387 10.2849 1.80681 16.0068 5.41948 19.6195C9.03214 23.2321 14.754 23.2751 18.2005 19.8286C18.7212 19.3079 19.5654 19.3079 20.0861 19.8286C20.6068 20.3493 20.6068 21.1935 20.0861 21.7142C15.5479 26.2524 8.13687 26.1081 3.53386 21.5051C-1.06915 16.9021 -1.21348 9.49102 3.32472 4.95282C7.36827 0.909267 13.6926 0.583117 18.2791 3.81602L17.9299 1.53532Z" fill="black"/>
</svg>
