<svg width="28" height="26" viewBox="0 0 28 26" fill="none" xmlns="http://www.w3.org/2000/svg">
<path fill-rule="evenodd" clip-rule="evenodd" d="M18.1514 16.1012C20.7211 14.6055 22.4485 11.8214 22.4485 8.63388C22.4485 3.86552 18.583 0 13.8146 0C9.04624 0 5.18072 3.86552 5.18072 8.63388C5.18072 11.8214 6.90808 14.6055 9.4778 16.1012C6.83471 16.8174 4.81267 18.1225 3.34603 19.4342C2.26193 20.4039 1.48318 21.374 0.971416 22.1085C0.714889 22.4766 0.523408 22.7885 0.392437 23.0158C0.326893 23.1295 0.276319 23.2223 0.240165 23.2907C0.222082 23.325 0.207588 23.3531 0.196616 23.3748L0.18278 23.4024L0.177823 23.4124L0.175831 23.4165L0.174956 23.4183C0.174956 23.4183 0.174217 23.4198 1.56842 24.0977L0.174162 23.4199C-0.242776 24.2776 0.114533 25.3109 0.972235 25.7279C1.15899 25.8186 1.35407 25.8727 1.54929 25.8929C1.68473 25.9614 1.83786 26 2 26L26 26C26.281 26 26.535 25.8841 26.7167 25.6974C27.531 25.2624 27.8622 24.2574 27.455 23.4199L26.2144 24.023L26.2143 24.023C27.4549 23.4197 27.4542 23.4183 27.4542 23.4183L27.4514 23.4124L27.4464 23.4024L27.4326 23.3748C27.4216 23.3531 27.4071 23.325 27.389 23.2907C27.3529 23.2223 27.3023 23.1295 27.2367 23.0158C27.1058 22.7885 26.9143 22.4766 26.6578 22.1085C26.146 21.374 25.3673 20.4039 24.2832 19.4342C22.8165 18.1225 20.7945 16.8174 18.1514 16.1012Z" fill="black"/>
</svg>
