<svg width="28" height="26" viewBox="0 0 28 26" fill="none" xmlns="http://www.w3.org/2000/svg">
<path fill-rule="evenodd" clip-rule="evenodd" d="M22.4485 8.63388C22.4485 11.8214 20.7211 14.6055 18.1514 16.1012C20.7945 16.8174 22.8165 18.1225 24.2832 19.4342C25.3673 20.4039 26.146 21.374 26.6578 22.1085C26.9143 22.4766 27.1058 22.7885 27.2367 23.0158C27.3023 23.1295 27.3529 23.2223 27.389 23.2907C27.4071 23.325 27.4216 23.3531 27.4326 23.3748L27.4464 23.4024L27.4514 23.4124L27.4542 23.4183C27.4542 23.4183 27.4549 23.4197 26.2143 24.023C26.2143 24.023 26.2143 24.023 26.2144 24.023L27.455 23.4199C27.8622 24.2574 27.531 25.2624 26.7167 25.6974C26.535 25.8841 26.281 26 26 26L2 26C1.83786 26 1.68473 25.9614 1.54929 25.8929C1.35407 25.8727 1.15899 25.8186 0.972235 25.7279C0.114533 25.3109 -0.242776 24.2776 0.174162 23.4199L1.56842 24.0977C0.174217 23.4198 0.174956 23.4183 0.174956 23.4183L0.175831 23.4165L0.177823 23.4124L0.18278 23.4024L0.196616 23.3748C0.207588 23.3531 0.222082 23.325 0.240165 23.2907C0.276319 23.2223 0.326893 23.1295 0.392437 23.0158C0.523408 22.7885 0.714889 22.4766 0.971416 22.1085C1.48318 21.374 2.26193 20.4039 3.34603 19.4342C4.81267 18.1225 6.83471 16.8174 9.4778 16.1012C6.90808 14.6055 5.18072 11.8214 5.18072 8.63388C5.18072 3.86552 9.04624 0 13.8146 0C18.583 0 22.4485 3.86552 22.4485 8.63388ZM3.86323 24L23.766 24C23.3744 23.4489 22.7864 22.7289 21.9808 22.0084C20.3043 20.5089 17.6778 18.9945 13.8146 18.9945C9.95138 18.9945 7.32489 20.5089 5.64838 22.0084C4.84283 22.7289 4.25484 23.4489 3.86323 24ZM18.9949 8.63388C18.9949 11.4949 16.6756 13.8142 13.8146 13.8142C10.9536 13.8142 8.63427 11.4949 8.63427 8.63388C8.63427 5.77286 10.9536 3.45355 13.8146 3.45355C16.6756 3.45355 18.9949 5.77286 18.9949 8.63388Z" fill="black"/>
</svg>
