<svg width="100" height="100" viewBox="0 0 100 100" fill="none" xmlns="http://www.w3.org/2000/svg">
<rect width="100" height="100" rx="50" fill="#5865F2"/>
<path d="M74.258 27.0592C69.7964 24.9489 65.012 23.3942 60.0097 22.5037C59.9186 22.4865 59.8276 22.5295 59.7807 22.6154C59.1654 23.7435 58.4838 25.2152 58.0065 26.372C52.6262 25.5417 47.2735 25.5417 42.0034 26.372C41.5261 25.1895 40.8197 23.7435 40.2017 22.6154C40.1547 22.5324 40.0637 22.4894 39.9726 22.5037C34.9731 23.3914 30.1887 24.9461 25.7244 27.0592C25.6857 27.0764 25.6526 27.105 25.6306 27.1422C16.5557 41.1178 14.0697 54.75 15.2893 68.213C15.2948 68.2789 15.3307 68.3419 15.3803 68.382C21.3677 72.9145 27.1675 75.6661 32.8596 77.49C32.9507 77.5186 33.0472 77.4843 33.1052 77.4069C34.4516 75.5115 35.6519 73.513 36.681 71.4113C36.7417 71.2882 36.6837 71.1421 36.5596 71.0935C34.6558 70.349 32.843 69.4413 31.0992 68.4106C30.9613 68.3276 30.9502 68.1242 31.0771 68.0269C31.4441 67.7434 31.8111 67.4485 32.1615 67.1507C32.2249 67.0963 32.3133 67.0848 32.3878 67.1192C43.8437 72.5108 56.2462 72.5108 67.5669 67.1192C67.6415 67.082 67.7298 67.0935 67.796 67.1479C68.1465 67.4456 68.5134 67.7434 68.8831 68.0269C69.01 68.1242 69.0017 68.3276 68.8638 68.4106C67.12 69.4614 65.3072 70.349 63.4007 71.0906C63.2765 71.1393 63.2213 71.2882 63.2821 71.4113C64.3332 73.51 65.5335 75.5086 66.8551 77.4041C66.9103 77.4843 67.0096 77.5186 67.1007 77.49C72.8204 75.6661 78.6201 72.9145 84.6075 68.382C84.66 68.3419 84.6931 68.2817 84.6986 68.2159C86.1582 52.6511 82.2539 39.1308 74.349 27.1451C74.3296 27.105 74.2966 27.0764 74.258 27.0592ZM38.3917 60.0154C34.9427 60.0154 32.1008 56.7514 32.1008 52.7427C32.1008 48.7341 34.8876 45.4701 38.3917 45.4701C41.9234 45.4701 44.7378 48.7628 44.6826 52.7427C44.6826 56.7514 41.8958 60.0154 38.3917 60.0154ZM61.6514 60.0154C58.2024 60.0154 55.3605 56.7514 55.3605 52.7427C55.3605 48.7341 58.1472 45.4701 61.6514 45.4701C65.1831 45.4701 67.9974 48.7628 67.9423 52.7427C67.9423 56.7514 65.1831 60.0154 61.6514 60.0154Z" fill="white"/>
</svg>
