<svg width="100" height="100" viewBox="0 0 100 100" fill="none" xmlns="http://www.w3.org/2000/svg">
<rect width="100" height="100" rx="50" fill="url(#paint0_linear_46_311)"/>
<path fill-rule="evenodd" clip-rule="evenodd" d="M22.6337 49.4718C37.2097 43.1213 46.9294 38.9346 51.7926 36.9118C65.6782 31.1364 68.5634 30.1331 70.444 30.1C70.8577 30.0927 71.7825 30.1952 72.3815 30.6813C72.8874 31.0917 73.0266 31.6462 73.0932 32.0353C73.1598 32.4245 73.2427 33.311 73.1768 34.0037C72.4243 41.9098 69.1684 61.096 67.512 69.9511C66.8111 73.698 65.431 74.9543 64.095 75.0773C61.1914 75.3444 58.9865 73.1584 56.1742 71.3149C51.7736 68.4302 49.2875 66.6345 45.0159 63.8196C40.0793 60.5665 43.2795 58.7785 46.0928 55.8564C46.8291 55.0917 59.6224 43.4552 59.87 42.3996C59.901 42.2676 59.9297 41.7755 59.6374 41.5156C59.345 41.2558 58.9135 41.3446 58.6021 41.4153C58.1608 41.5155 51.1307 46.1621 37.5118 55.3552C35.5164 56.7254 33.7089 57.3931 32.0895 57.3581C30.3043 57.3195 26.8702 56.3487 24.3172 55.5188C21.186 54.501 18.6973 53.9628 18.914 52.2342C19.0269 51.3338 20.2668 50.413 22.6337 49.4718Z" fill="white"/>
<defs>
<linearGradient id="paint0_linear_46_311" x1="50" y1="0" x2="50" y2="99.2583" gradientUnits="userSpaceOnUse">
<stop stop-color="#2AABEE"/>
<stop offset="1" stop-color="#229ED9"/>
</linearGradient>
</defs>
</svg>
