<svg width="100" height="100" viewBox="0 0 100 100" fill="none" xmlns="http://www.w3.org/2000/svg">
<g clip-path="url(#clip0_46_313)">
<path d="M0 48C0 25.3725 0 14.0589 7.02944 7.02944C14.0589 0 25.3725 0 48 0H52C74.6275 0 85.941 0 92.9706 7.02944C100 14.0589 100 25.3725 100 48V52C100 74.6275 100 85.941 92.9706 92.9706C85.941 100 74.6275 100 52 100H48C25.3725 100 14.0589 100 7.02944 92.9706C0 85.941 0 74.6275 0 52V48Z" fill="#0077FF"/>
<path d="M53.0366 72C29.8037 72 16.5522 56.2342 16 30H27.6377C28.02 49.2553 36.5994 57.4114 43.3952 59.0931V30H54.3537V46.6066C61.0645 45.8919 68.1143 38.3243 70.4928 30H81.4512C79.6248 40.2583 71.9796 47.8258 66.543 50.9369C71.9796 53.4595 80.6871 60.0601 84 72H71.9371C69.3462 64.012 62.8909 57.8318 54.3537 56.991V72H53.0366Z" fill="white"/>
</g>
<defs>
<clipPath id="clip0_46_313">
<rect width="100" height="100" rx="50" fill="white"/>
</clipPath>
</defs>
</svg>
