<svg width="100" height="100" viewBox="0 0 100 100" fill="none" xmlns="http://www.w3.org/2000/svg">
<rect width="100" height="100" rx="50" fill="url(#paint0_linear_46_312)"/>
<path d="M19.6707 79.0891L23.9579 63.5209C21.3073 58.9513 19.9169 53.7763 19.9314 48.486C19.9314 31.9087 33.4883 18.4307 50.1302 18.4307C58.2122 18.4307 65.8018 21.5587 71.4939 27.2383C77.2006 32.9178 80.3436 40.4713 80.3291 48.5004C80.3291 65.0777 66.7722 78.5558 50.1157 78.5558H50.1013C45.0464 78.5558 40.0784 77.2873 35.6608 74.8944L19.6707 79.0891ZM36.4285 69.4599L37.341 70.0077C41.1937 72.2852 45.6113 73.4817 50.1157 73.4961H50.1302C63.9623 73.4961 75.2308 62.2956 75.2308 48.5148C75.2308 41.8407 72.6237 35.5701 67.8874 30.842C63.1512 26.1139 56.8362 23.5192 50.1302 23.5192C36.2981 23.5048 25.0297 34.7052 25.0297 48.486C25.0297 53.1997 26.3477 57.7981 28.8679 61.7767L29.4617 62.7281L26.9271 71.9393L36.4285 69.4599Z" fill="white"/>
<path d="M20.728 78.0373L24.8704 63.0024C22.3068 58.6058 20.9598 53.6038 20.9598 48.5009C20.9743 32.5002 34.0532 19.4834 50.1303 19.4834C57.9371 19.4834 65.2514 22.5106 70.7553 27.9883C76.2592 33.466 79.2863 40.76 79.2863 48.5153C79.2863 64.516 66.1929 77.5328 50.1303 77.5328H50.1158C45.2347 77.5328 40.4406 76.3075 36.1823 74.0011L20.728 78.0373Z" fill="url(#paint1_linear_46_312)"/>
<path d="M19.6707 79.0891L23.9579 63.5209C21.3073 58.9513 19.9169 53.7763 19.9314 48.486C19.9314 31.9087 33.4883 18.4307 50.1302 18.4307C58.2122 18.4307 65.8018 21.5587 71.4939 27.2383C77.2006 32.9178 80.3436 40.4713 80.3291 48.5004C80.3291 65.0777 66.7722 78.5558 50.1157 78.5558H50.1013C45.0464 78.5558 40.0784 77.2873 35.6608 74.8944L19.6707 79.0891ZM36.4285 69.4599L37.341 70.0077C41.1937 72.2852 45.6113 73.4817 50.1157 73.4961H50.1302C63.9623 73.4961 75.2308 62.2956 75.2308 48.5148C75.2308 41.8407 72.6237 35.5701 67.8874 30.842C63.1512 26.1139 56.8362 23.5192 50.1302 23.5192C36.2981 23.5048 25.0297 34.7052 25.0297 48.486C25.0297 53.1997 26.3477 57.7981 28.8679 61.7767L29.4617 62.7281L26.9271 71.9393L36.4285 69.4599Z" fill="url(#paint2_linear_46_312)"/>
<path fill-rule="evenodd" clip-rule="evenodd" d="M42.5838 35.9163C42.0189 34.6622 41.4251 34.6333 40.8892 34.6189C40.4547 34.6045 39.9478 34.6045 39.4408 34.6045C38.9339 34.6045 38.1228 34.7919 37.4276 35.5415C36.7323 36.2911 34.7915 38.1073 34.7915 41.812C34.7915 45.5023 37.5 49.0772 37.8766 49.5817C38.2531 50.0862 43.1052 57.9136 50.7672 60.9263C57.1401 63.4346 58.4437 62.93 59.8196 62.8003C61.1956 62.6706 64.2806 60.984 64.9179 59.2254C65.5407 57.4667 65.5407 55.9676 65.3525 55.6504C65.1642 55.3333 64.6572 55.1459 63.9041 54.7711C63.1509 54.3963 59.443 52.58 58.7478 52.3206C58.0526 52.0755 57.5457 51.9458 57.0532 52.6954C56.5463 53.4449 55.0979 55.1315 54.6634 55.636C54.2288 56.1406 53.7798 56.1982 53.0267 55.8234C52.2735 55.4486 49.8402 54.6558 46.9579 52.0899C44.7129 50.1007 43.1921 47.6357 42.7576 46.8861C42.3231 46.1365 42.7142 45.7329 43.0908 45.3581C43.4239 45.0266 43.8439 44.4788 44.2205 44.0463C44.5971 43.6139 44.7274 43.2968 44.9737 42.7922C45.2199 42.2877 45.104 41.8553 44.9157 41.4805C44.7274 41.1201 43.2501 37.401 42.5838 35.9163Z" fill="white"/>
<defs>
<linearGradient id="paint0_linear_46_312" x1="49.9974" y1="99.995" x2="49.9974" y2="-0.00349874" gradientUnits="userSpaceOnUse">
<stop stop-color="#20B038"/>
<stop offset="1" stop-color="#60D66A"/>
</linearGradient>
<linearGradient id="paint1_linear_46_312" x1="50.0056" y1="78.0344" x2="50.0056" y2="19.4813" gradientUnits="userSpaceOnUse">
<stop stop-color="#20B038"/>
<stop offset="1" stop-color="#60D66A"/>
</linearGradient>
<linearGradient id="paint2_linear_46_312" x1="50.0058" y1="79.0834" x2="50.0058" y2="18.4307" gradientUnits="userSpaceOnUse">
<stop stop-color="#F9F9F9"/>
<stop offset="1" stop-color="white"/>
</linearGradient>
</defs>
</svg>
